<mxfile host="app.diagrams.net" agent="Mozilla/5.0 (Windows NT 10.0; Win64; x64) AppleWebKit/537.36 (KHTML, like Gecko) Chrome/130.0.0.0 Safari/537.36 Edg/130.0.0.0" version="24.8.4">
  <diagram name="Page-1" id="OW35Kh3gObqYu0H0ip8u">
    <mxGraphModel dx="969" dy="1583" grid="1" gridSize="10" guides="1" tooltips="1" connect="1" arrows="1" fold="1" page="1" pageScale="1" pageWidth="850" pageHeight="1100" math="0" shadow="0">
      <root>
        <mxCell id="0" />
        <mxCell id="1" parent="0" />
        <mxCell id="RR7a0yrKoINH36ci6veu-21" style="edgeStyle=orthogonalEdgeStyle;rounded=0;orthogonalLoop=1;jettySize=auto;html=1;entryX=0.5;entryY=0;entryDx=0;entryDy=0;" edge="1" parent="1" source="RR7a0yrKoINH36ci6veu-4" target="RR7a0yrKoINH36ci6veu-20">
          <mxGeometry relative="1" as="geometry" />
        </mxCell>
        <mxCell id="RR7a0yrKoINH36ci6veu-4" value="" style="ellipse;fillColor=strokeColor;html=1;" vertex="1" parent="1">
          <mxGeometry x="300" y="-170" width="30" height="30" as="geometry" />
        </mxCell>
        <mxCell id="RR7a0yrKoINH36ci6veu-5" value="" style="ellipse;html=1;shape=endState;fillColor=strokeColor;" vertex="1" parent="1">
          <mxGeometry x="310" y="2590" width="30" height="30" as="geometry" />
        </mxCell>
        <mxCell id="RR7a0yrKoINH36ci6veu-18" style="edgeStyle=orthogonalEdgeStyle;rounded=0;orthogonalLoop=1;jettySize=auto;html=1;entryX=0.5;entryY=0;entryDx=0;entryDy=0;" edge="1" parent="1" source="RR7a0yrKoINH36ci6veu-6" target="RR7a0yrKoINH36ci6veu-12">
          <mxGeometry relative="1" as="geometry" />
        </mxCell>
        <mxCell id="RR7a0yrKoINH36ci6veu-19" style="edgeStyle=orthogonalEdgeStyle;rounded=0;orthogonalLoop=1;jettySize=auto;html=1;entryX=0.5;entryY=0;entryDx=0;entryDy=0;" edge="1" parent="1" source="RR7a0yrKoINH36ci6veu-6" target="RR7a0yrKoINH36ci6veu-13">
          <mxGeometry relative="1" as="geometry" />
        </mxCell>
        <mxCell id="RR7a0yrKoINH36ci6veu-6" value="Credentials Valid?" style="rhombus;" vertex="1" parent="1">
          <mxGeometry x="250" y="190" width="130" height="90" as="geometry" />
        </mxCell>
        <mxCell id="RR7a0yrKoINH36ci6veu-7" value="Manage Job Posting" style="shape=umlFrame;whiteSpace=wrap;html=1;pointerEvents=0;recursiveResize=0;container=1;collapsible=0;width=160;" vertex="1" parent="1">
          <mxGeometry x="192.5" y="1430" width="265" height="270" as="geometry" />
        </mxCell>
        <mxCell id="RR7a0yrKoINH36ci6veu-50" style="edgeStyle=orthogonalEdgeStyle;rounded=0;orthogonalLoop=1;jettySize=auto;html=1;entryX=0.5;entryY=0;entryDx=0;entryDy=0;" edge="1" parent="RR7a0yrKoINH36ci6veu-7" source="RR7a0yrKoINH36ci6veu-45" target="RR7a0yrKoINH36ci6veu-46">
          <mxGeometry relative="1" as="geometry" />
        </mxCell>
        <mxCell id="RR7a0yrKoINH36ci6veu-45" value="&lt;div style=&quot;text-align: justify;&quot;&gt;&lt;span style=&quot;background-color: initial;&quot;&gt;View Active Job Postings&lt;/span&gt;&lt;/div&gt;" style="html=1;align=center;verticalAlign=top;rounded=1;absoluteArcSize=1;arcSize=50;dashed=0;spacingTop=10;spacingRight=30;whiteSpace=wrap;" vertex="1" parent="RR7a0yrKoINH36ci6veu-7">
          <mxGeometry x="30" y="50" width="205" height="40" as="geometry" />
        </mxCell>
        <mxCell id="RR7a0yrKoINH36ci6veu-51" style="edgeStyle=orthogonalEdgeStyle;rounded=0;orthogonalLoop=1;jettySize=auto;html=1;entryX=0.5;entryY=0;entryDx=0;entryDy=0;" edge="1" parent="RR7a0yrKoINH36ci6veu-7" source="RR7a0yrKoINH36ci6veu-46" target="RR7a0yrKoINH36ci6veu-47">
          <mxGeometry relative="1" as="geometry" />
        </mxCell>
        <mxCell id="RR7a0yrKoINH36ci6veu-46" value="&lt;div style=&quot;text-align: justify;&quot;&gt;&lt;span style=&quot;background-color: initial;&quot;&gt;Edit Job Postings&lt;/span&gt;&lt;/div&gt;" style="html=1;align=center;verticalAlign=top;rounded=1;absoluteArcSize=1;arcSize=50;dashed=0;spacingTop=10;spacingRight=30;whiteSpace=wrap;" vertex="1" parent="RR7a0yrKoINH36ci6veu-7">
          <mxGeometry x="30.00999999999999" y="130" width="205" height="40" as="geometry" />
        </mxCell>
        <mxCell id="RR7a0yrKoINH36ci6veu-47" value="&lt;div style=&quot;text-align: justify;&quot;&gt;Remove Job Postings&lt;/div&gt;" style="html=1;align=center;verticalAlign=top;rounded=1;absoluteArcSize=1;arcSize=50;dashed=0;spacingTop=10;spacingRight=30;whiteSpace=wrap;" vertex="1" parent="RR7a0yrKoINH36ci6veu-7">
          <mxGeometry x="30.00999999999999" y="210" width="205" height="40" as="geometry" />
        </mxCell>
        <mxCell id="RR7a0yrKoINH36ci6veu-8" value="Post New Job" style="shape=umlFrame;whiteSpace=wrap;html=1;pointerEvents=0;recursiveResize=0;container=1;collapsible=0;width=160;" vertex="1" parent="1">
          <mxGeometry x="181.25" y="830" width="287.5" height="520" as="geometry" />
        </mxCell>
        <mxCell id="RR7a0yrKoINH36ci6veu-35" style="edgeStyle=orthogonalEdgeStyle;rounded=0;orthogonalLoop=1;jettySize=auto;html=1;entryX=0.5;entryY=0;entryDx=0;entryDy=0;" edge="1" parent="RR7a0yrKoINH36ci6veu-8" source="RR7a0yrKoINH36ci6veu-33" target="RR7a0yrKoINH36ci6veu-34">
          <mxGeometry relative="1" as="geometry" />
        </mxCell>
        <mxCell id="RR7a0yrKoINH36ci6veu-33" value="&lt;div style=&quot;text-align: justify;&quot;&gt;&lt;span style=&quot;background-color: initial;&quot;&gt;Enter Job Title and Description&lt;/span&gt;&lt;/div&gt;" style="html=1;align=center;verticalAlign=top;rounded=1;absoluteArcSize=1;arcSize=50;dashed=0;spacingTop=10;spacingRight=30;whiteSpace=wrap;" vertex="1" parent="RR7a0yrKoINH36ci6veu-8">
          <mxGeometry x="41.25" y="70" width="205" height="40" as="geometry" />
        </mxCell>
        <mxCell id="RR7a0yrKoINH36ci6veu-38" style="edgeStyle=orthogonalEdgeStyle;rounded=0;orthogonalLoop=1;jettySize=auto;html=1;entryX=0.5;entryY=0;entryDx=0;entryDy=0;" edge="1" parent="RR7a0yrKoINH36ci6veu-8" source="RR7a0yrKoINH36ci6veu-34" target="RR7a0yrKoINH36ci6veu-36">
          <mxGeometry relative="1" as="geometry" />
        </mxCell>
        <mxCell id="RR7a0yrKoINH36ci6veu-34" value="&lt;div style=&quot;text-align: justify;&quot;&gt;&lt;span style=&quot;background-color: initial;&quot;&gt;Select Job Category&lt;/span&gt;&lt;/div&gt;" style="html=1;align=center;verticalAlign=top;rounded=1;absoluteArcSize=1;arcSize=50;dashed=0;spacingTop=10;spacingRight=30;whiteSpace=wrap;" vertex="1" parent="RR7a0yrKoINH36ci6veu-8">
          <mxGeometry x="63.75" y="150" width="160" height="40" as="geometry" />
        </mxCell>
        <mxCell id="RR7a0yrKoINH36ci6veu-41" style="edgeStyle=orthogonalEdgeStyle;rounded=0;orthogonalLoop=1;jettySize=auto;html=1;entryX=0.5;entryY=0;entryDx=0;entryDy=0;" edge="1" parent="RR7a0yrKoINH36ci6veu-8" source="RR7a0yrKoINH36ci6veu-36" target="RR7a0yrKoINH36ci6veu-39">
          <mxGeometry relative="1" as="geometry" />
        </mxCell>
        <mxCell id="RR7a0yrKoINH36ci6veu-36" value="&lt;div style=&quot;text-align: justify;&quot;&gt;&lt;span style=&quot;background-color: initial;&quot;&gt;Set Job Requirements&lt;/span&gt;&lt;/div&gt;" style="html=1;align=center;verticalAlign=top;rounded=1;absoluteArcSize=1;arcSize=50;dashed=0;spacingTop=10;spacingRight=30;whiteSpace=wrap;" vertex="1" parent="RR7a0yrKoINH36ci6veu-8">
          <mxGeometry x="55.63" y="230" width="176.25" height="40" as="geometry" />
        </mxCell>
        <mxCell id="RR7a0yrKoINH36ci6veu-42" style="edgeStyle=orthogonalEdgeStyle;rounded=0;orthogonalLoop=1;jettySize=auto;html=1;entryX=0.5;entryY=0;entryDx=0;entryDy=0;" edge="1" parent="RR7a0yrKoINH36ci6veu-8" source="RR7a0yrKoINH36ci6veu-39" target="RR7a0yrKoINH36ci6veu-40">
          <mxGeometry relative="1" as="geometry" />
        </mxCell>
        <mxCell id="RR7a0yrKoINH36ci6veu-39" value="&lt;div style=&quot;text-align: justify;&quot;&gt;&lt;span style=&quot;background-color: initial;&quot;&gt;Choose Job Location&lt;/span&gt;&lt;/div&gt;" style="html=1;align=center;verticalAlign=top;rounded=1;absoluteArcSize=1;arcSize=50;dashed=0;spacingTop=10;spacingRight=30;whiteSpace=wrap;" vertex="1" parent="RR7a0yrKoINH36ci6veu-8">
          <mxGeometry x="60.629999999999995" y="310" width="166.24" height="40" as="geometry" />
        </mxCell>
        <mxCell id="RR7a0yrKoINH36ci6veu-44" style="edgeStyle=orthogonalEdgeStyle;rounded=0;orthogonalLoop=1;jettySize=auto;html=1;entryX=0.5;entryY=0;entryDx=0;entryDy=0;" edge="1" parent="RR7a0yrKoINH36ci6veu-8" source="RR7a0yrKoINH36ci6veu-40" target="RR7a0yrKoINH36ci6veu-43">
          <mxGeometry relative="1" as="geometry" />
        </mxCell>
        <mxCell id="RR7a0yrKoINH36ci6veu-40" value="&lt;div style=&quot;text-align: justify;&quot;&gt;&lt;span style=&quot;background-color: initial;&quot;&gt;Set Salary Range&lt;/span&gt;&lt;/div&gt;" style="html=1;align=center;verticalAlign=top;rounded=1;absoluteArcSize=1;arcSize=50;dashed=0;spacingTop=10;spacingRight=30;whiteSpace=wrap;" vertex="1" parent="RR7a0yrKoINH36ci6veu-8">
          <mxGeometry x="60.629999999999995" y="390" width="166.24" height="40" as="geometry" />
        </mxCell>
        <mxCell id="RR7a0yrKoINH36ci6veu-43" value="&lt;div style=&quot;text-align: justify;&quot;&gt;&lt;span style=&quot;background-color: initial;&quot;&gt;Publish Job Posting&lt;/span&gt;&lt;/div&gt;" style="html=1;align=center;verticalAlign=top;rounded=1;absoluteArcSize=1;arcSize=50;dashed=0;spacingTop=10;spacingRight=30;whiteSpace=wrap;" vertex="1" parent="RR7a0yrKoINH36ci6veu-8">
          <mxGeometry x="60.63" y="470" width="166.25" height="40" as="geometry" />
        </mxCell>
        <mxCell id="RR7a0yrKoINH36ci6veu-9" value="Dashboard" style="shape=umlFrame;whiteSpace=wrap;html=1;pointerEvents=0;recursiveResize=0;container=1;collapsible=0;width=160;" vertex="1" parent="1">
          <mxGeometry x="195" y="460" width="240" height="300" as="geometry" />
        </mxCell>
        <mxCell id="RR7a0yrKoINH36ci6veu-31" style="edgeStyle=orthogonalEdgeStyle;rounded=0;orthogonalLoop=1;jettySize=auto;html=1;entryX=0.5;entryY=0;entryDx=0;entryDy=0;" edge="1" parent="RR7a0yrKoINH36ci6veu-9" source="RR7a0yrKoINH36ci6veu-28" target="RR7a0yrKoINH36ci6veu-29">
          <mxGeometry relative="1" as="geometry" />
        </mxCell>
        <mxCell id="RR7a0yrKoINH36ci6veu-28" value="&lt;div style=&quot;text-align: justify;&quot;&gt;&lt;span style=&quot;background-color: initial;&quot;&gt;View Job Postings&lt;/span&gt;&lt;/div&gt;" style="html=1;align=center;verticalAlign=top;rounded=1;absoluteArcSize=1;arcSize=50;dashed=0;spacingTop=10;spacingRight=30;whiteSpace=wrap;" vertex="1" parent="RR7a0yrKoINH36ci6veu-9">
          <mxGeometry x="55" y="60" width="150" height="40" as="geometry" />
        </mxCell>
        <mxCell id="RR7a0yrKoINH36ci6veu-32" style="edgeStyle=orthogonalEdgeStyle;rounded=0;orthogonalLoop=1;jettySize=auto;html=1;entryX=0.5;entryY=0;entryDx=0;entryDy=0;" edge="1" parent="RR7a0yrKoINH36ci6veu-9" source="RR7a0yrKoINH36ci6veu-29" target="RR7a0yrKoINH36ci6veu-30">
          <mxGeometry relative="1" as="geometry" />
        </mxCell>
        <mxCell id="RR7a0yrKoINH36ci6veu-29" value="&lt;div style=&quot;text-align: justify;&quot;&gt;&lt;span style=&quot;background-color: initial;&quot;&gt;Post a New Job&lt;/span&gt;&lt;/div&gt;" style="html=1;align=center;verticalAlign=top;rounded=1;absoluteArcSize=1;arcSize=50;dashed=0;spacingTop=10;spacingRight=30;whiteSpace=wrap;" vertex="1" parent="RR7a0yrKoINH36ci6veu-9">
          <mxGeometry x="50" y="145" width="160" height="35" as="geometry" />
        </mxCell>
        <mxCell id="RR7a0yrKoINH36ci6veu-30" value="&lt;div style=&quot;text-align: justify;&quot;&gt;&lt;span style=&quot;background-color: initial;&quot;&gt;Manage Job Postings&lt;/span&gt;&lt;/div&gt;" style="html=1;align=center;verticalAlign=top;rounded=1;absoluteArcSize=1;arcSize=50;dashed=0;spacingTop=10;spacingRight=30;whiteSpace=wrap;" vertex="1" parent="RR7a0yrKoINH36ci6veu-9">
          <mxGeometry x="50" y="230" width="160" height="40" as="geometry" />
        </mxCell>
        <mxCell id="RR7a0yrKoINH36ci6veu-26" style="edgeStyle=orthogonalEdgeStyle;rounded=0;orthogonalLoop=1;jettySize=auto;html=1;entryX=1;entryY=0.5;entryDx=0;entryDy=0;" edge="1" parent="1" source="RR7a0yrKoINH36ci6veu-12" target="RR7a0yrKoINH36ci6veu-15">
          <mxGeometry relative="1" as="geometry">
            <mxPoint x="690" y="20" as="targetPoint" />
            <Array as="points">
              <mxPoint x="670" y="325" />
              <mxPoint x="670" y="20" />
            </Array>
          </mxGeometry>
        </mxCell>
        <mxCell id="RR7a0yrKoINH36ci6veu-12" value="&lt;div style=&quot;text-align: justify;&quot;&gt;Display Error Message&lt;/div&gt;" style="html=1;align=center;verticalAlign=top;rounded=1;absoluteArcSize=1;arcSize=50;dashed=0;spacingTop=10;spacingRight=30;whiteSpace=wrap;" vertex="1" parent="1">
          <mxGeometry x="390" y="300" width="190" height="50" as="geometry" />
        </mxCell>
        <mxCell id="RR7a0yrKoINH36ci6veu-13" value="&lt;div style=&quot;text-align: justify;&quot;&gt;&lt;span style=&quot;background-color: initial;&quot;&gt;Show Employer Dashboard&lt;/span&gt;&lt;/div&gt;" style="html=1;align=center;verticalAlign=top;rounded=1;absoluteArcSize=1;arcSize=50;dashed=0;spacingTop=10;spacingRight=30;whiteSpace=wrap;" vertex="1" parent="1">
          <mxGeometry x="50" y="300" width="190" height="50" as="geometry" />
        </mxCell>
        <mxCell id="RR7a0yrKoINH36ci6veu-24" style="edgeStyle=orthogonalEdgeStyle;rounded=0;orthogonalLoop=1;jettySize=auto;html=1;entryX=0.5;entryY=0;entryDx=0;entryDy=0;" edge="1" parent="1" source="RR7a0yrKoINH36ci6veu-15" target="RR7a0yrKoINH36ci6veu-23">
          <mxGeometry relative="1" as="geometry" />
        </mxCell>
        <mxCell id="RR7a0yrKoINH36ci6veu-15" value="&lt;div style=&quot;text-align: justify;&quot;&gt;&lt;span style=&quot;background-color: initial;&quot;&gt;Employer Login&lt;/span&gt;&lt;/div&gt;" style="html=1;align=center;verticalAlign=top;rounded=1;absoluteArcSize=1;arcSize=50;dashed=0;spacingTop=10;spacingRight=30;whiteSpace=wrap;" vertex="1" parent="1">
          <mxGeometry x="240" width="150" height="40" as="geometry" />
        </mxCell>
        <mxCell id="RR7a0yrKoINH36ci6veu-22" style="edgeStyle=orthogonalEdgeStyle;rounded=0;orthogonalLoop=1;jettySize=auto;html=1;entryX=0.5;entryY=0;entryDx=0;entryDy=0;" edge="1" parent="1" source="RR7a0yrKoINH36ci6veu-20" target="RR7a0yrKoINH36ci6veu-15">
          <mxGeometry relative="1" as="geometry" />
        </mxCell>
        <mxCell id="RR7a0yrKoINH36ci6veu-20" value="&lt;div style=&quot;text-align: justify;&quot;&gt;&lt;span style=&quot;background-color: initial;&quot;&gt;Employer Registration&lt;/span&gt;&lt;/div&gt;" style="html=1;align=center;verticalAlign=top;rounded=1;absoluteArcSize=1;arcSize=50;dashed=0;spacingTop=10;spacingRight=30;whiteSpace=wrap;" vertex="1" parent="1">
          <mxGeometry x="220" y="-90" width="190" height="40" as="geometry" />
        </mxCell>
        <mxCell id="RR7a0yrKoINH36ci6veu-25" style="edgeStyle=orthogonalEdgeStyle;rounded=0;orthogonalLoop=1;jettySize=auto;html=1;entryX=0.5;entryY=0;entryDx=0;entryDy=0;" edge="1" parent="1" source="RR7a0yrKoINH36ci6veu-23" target="RR7a0yrKoINH36ci6veu-6">
          <mxGeometry relative="1" as="geometry" />
        </mxCell>
        <mxCell id="RR7a0yrKoINH36ci6veu-23" value="&lt;div style=&quot;text-align: justify;&quot;&gt;&lt;span style=&quot;background-color: initial;&quot;&gt;Authentication&lt;/span&gt;&lt;/div&gt;" style="html=1;align=center;verticalAlign=top;rounded=1;absoluteArcSize=1;arcSize=50;dashed=0;spacingTop=10;spacingRight=30;whiteSpace=wrap;" vertex="1" parent="1">
          <mxGeometry x="240" y="90" width="150" height="40" as="geometry" />
        </mxCell>
        <mxCell id="RR7a0yrKoINH36ci6veu-48" value="Messaging" style="shape=umlFrame;whiteSpace=wrap;html=1;pointerEvents=0;recursiveResize=0;container=1;collapsible=0;width=160;" vertex="1" parent="1">
          <mxGeometry x="185" y="2220" width="280" height="190" as="geometry" />
        </mxCell>
        <mxCell id="RR7a0yrKoINH36ci6veu-56" value="&lt;div style=&quot;text-align: justify;&quot;&gt;Check Messages from Candidates&lt;/div&gt;" style="html=1;align=center;verticalAlign=top;rounded=1;absoluteArcSize=1;arcSize=50;dashed=0;spacingTop=10;spacingRight=30;whiteSpace=wrap;" vertex="1" parent="RR7a0yrKoINH36ci6veu-48">
          <mxGeometry x="25" y="50" width="230" height="40" as="geometry" />
        </mxCell>
        <mxCell id="RR7a0yrKoINH36ci6veu-57" value="&lt;div style=&quot;text-align: justify;&quot;&gt;Reply to Messages&lt;/div&gt;" style="html=1;align=center;verticalAlign=top;rounded=1;absoluteArcSize=1;arcSize=50;dashed=0;spacingTop=10;spacingRight=30;whiteSpace=wrap;" vertex="1" parent="RR7a0yrKoINH36ci6veu-48">
          <mxGeometry x="50" y="130" width="180" height="40" as="geometry" />
        </mxCell>
        <mxCell id="RR7a0yrKoINH36ci6veu-49" value="Resume Management" style="shape=umlFrame;whiteSpace=wrap;html=1;pointerEvents=0;recursiveResize=0;container=1;collapsible=0;width=160;" vertex="1" parent="1">
          <mxGeometry x="155" y="1780" width="340" height="360" as="geometry" />
        </mxCell>
        <mxCell id="RR7a0yrKoINH36ci6veu-55" value="&lt;div style=&quot;text-align: justify;&quot;&gt;View Resumes Submitted for Jobs&lt;/div&gt;" style="html=1;align=center;verticalAlign=top;rounded=1;absoluteArcSize=1;arcSize=50;dashed=0;spacingTop=10;spacingRight=30;whiteSpace=wrap;" vertex="1" parent="RR7a0yrKoINH36ci6veu-49">
          <mxGeometry x="55.00999999999999" y="50" width="230" height="40" as="geometry" />
        </mxCell>
        <mxCell id="RR7a0yrKoINH36ci6veu-54" value="&lt;div style=&quot;text-align: justify;&quot;&gt;Shortlist Candidates&lt;/div&gt;" style="html=1;align=center;verticalAlign=top;rounded=1;absoluteArcSize=1;arcSize=50;dashed=0;spacingTop=10;spacingRight=30;whiteSpace=wrap;" vertex="1" parent="RR7a0yrKoINH36ci6veu-49">
          <mxGeometry x="67.50999999999999" y="130" width="205" height="40" as="geometry" />
        </mxCell>
        <mxCell id="RR7a0yrKoINH36ci6veu-53" value="&lt;div style=&quot;text-align: justify;&quot;&gt;Download Resumes&lt;/div&gt;" style="html=1;align=center;verticalAlign=top;rounded=1;absoluteArcSize=1;arcSize=50;dashed=0;spacingTop=10;spacingRight=30;whiteSpace=wrap;" vertex="1" parent="RR7a0yrKoINH36ci6veu-49">
          <mxGeometry x="67.50999999999999" y="210" width="205" height="40" as="geometry" />
        </mxCell>
        <mxCell id="RR7a0yrKoINH36ci6veu-52" value="&lt;div style=&quot;text-align: justify;&quot;&gt;Send Messages to Selected Candidates&lt;/div&gt;" style="html=1;align=center;verticalAlign=top;rounded=1;absoluteArcSize=1;arcSize=50;dashed=0;spacingTop=10;spacingRight=30;whiteSpace=wrap;" vertex="1" parent="RR7a0yrKoINH36ci6veu-49">
          <mxGeometry x="40.00999999999999" y="290" width="260" height="40" as="geometry" />
        </mxCell>
        <mxCell id="RR7a0yrKoINH36ci6veu-58" style="edgeStyle=orthogonalEdgeStyle;rounded=0;orthogonalLoop=1;jettySize=auto;html=1;exitX=0.5;exitY=1;exitDx=0;exitDy=0;" edge="1" parent="RR7a0yrKoINH36ci6veu-49" source="RR7a0yrKoINH36ci6veu-52" target="RR7a0yrKoINH36ci6veu-52">
          <mxGeometry relative="1" as="geometry" />
        </mxCell>
        <mxCell id="RR7a0yrKoINH36ci6veu-59" style="edgeStyle=orthogonalEdgeStyle;rounded=0;orthogonalLoop=1;jettySize=auto;html=1;entryX=0.5;entryY=0;entryDx=0;entryDy=0;" edge="1" parent="1" source="RR7a0yrKoINH36ci6veu-13" target="RR7a0yrKoINH36ci6veu-28">
          <mxGeometry relative="1" as="geometry" />
        </mxCell>
        <mxCell id="RR7a0yrKoINH36ci6veu-60" style="edgeStyle=orthogonalEdgeStyle;rounded=0;orthogonalLoop=1;jettySize=auto;html=1;entryX=0.5;entryY=0;entryDx=0;entryDy=0;" edge="1" parent="1" source="RR7a0yrKoINH36ci6veu-30" target="RR7a0yrKoINH36ci6veu-33">
          <mxGeometry relative="1" as="geometry" />
        </mxCell>
        <mxCell id="RR7a0yrKoINH36ci6veu-61" style="edgeStyle=orthogonalEdgeStyle;rounded=0;orthogonalLoop=1;jettySize=auto;html=1;entryX=0.5;entryY=0;entryDx=0;entryDy=0;" edge="1" parent="1" source="RR7a0yrKoINH36ci6veu-43" target="RR7a0yrKoINH36ci6veu-45">
          <mxGeometry relative="1" as="geometry" />
        </mxCell>
        <mxCell id="RR7a0yrKoINH36ci6veu-62" style="edgeStyle=orthogonalEdgeStyle;rounded=0;orthogonalLoop=1;jettySize=auto;html=1;entryX=0.5;entryY=0;entryDx=0;entryDy=0;" edge="1" parent="1" source="RR7a0yrKoINH36ci6veu-47" target="RR7a0yrKoINH36ci6veu-55">
          <mxGeometry relative="1" as="geometry" />
        </mxCell>
        <mxCell id="RR7a0yrKoINH36ci6veu-63" style="edgeStyle=orthogonalEdgeStyle;rounded=0;orthogonalLoop=1;jettySize=auto;html=1;entryX=0.5;entryY=0;entryDx=0;entryDy=0;" edge="1" parent="1" source="RR7a0yrKoINH36ci6veu-52" target="RR7a0yrKoINH36ci6veu-56">
          <mxGeometry relative="1" as="geometry" />
        </mxCell>
        <mxCell id="RR7a0yrKoINH36ci6veu-65" value="Start" style="text;html=1;align=center;verticalAlign=middle;resizable=0;points=[];autosize=1;strokeColor=none;fillColor=none;" vertex="1" parent="1">
          <mxGeometry x="330" y="-170" width="50" height="30" as="geometry" />
        </mxCell>
        <mxCell id="RR7a0yrKoINH36ci6veu-68" style="edgeStyle=orthogonalEdgeStyle;rounded=0;orthogonalLoop=1;jettySize=auto;html=1;entryX=0.5;entryY=0;entryDx=0;entryDy=0;" edge="1" parent="1" source="RR7a0yrKoINH36ci6veu-66" target="RR7a0yrKoINH36ci6veu-5">
          <mxGeometry relative="1" as="geometry" />
        </mxCell>
        <mxCell id="RR7a0yrKoINH36ci6veu-66" value="&lt;div style=&quot;text-align: justify;&quot;&gt;Logout&lt;/div&gt;" style="html=1;align=center;verticalAlign=top;rounded=1;absoluteArcSize=1;arcSize=50;dashed=0;spacingTop=10;spacingRight=30;whiteSpace=wrap;" vertex="1" parent="1">
          <mxGeometry x="280" y="2470" width="90" height="40" as="geometry" />
        </mxCell>
        <mxCell id="RR7a0yrKoINH36ci6veu-67" style="edgeStyle=orthogonalEdgeStyle;rounded=0;orthogonalLoop=1;jettySize=auto;html=1;entryX=0.5;entryY=0;entryDx=0;entryDy=0;" edge="1" parent="1" source="RR7a0yrKoINH36ci6veu-57" target="RR7a0yrKoINH36ci6veu-66">
          <mxGeometry relative="1" as="geometry" />
        </mxCell>
        <mxCell id="RR7a0yrKoINH36ci6veu-69" value="End" style="text;html=1;align=center;verticalAlign=middle;resizable=0;points=[];autosize=1;strokeColor=none;fillColor=none;" vertex="1" parent="1">
          <mxGeometry x="350" y="2590" width="40" height="30" as="geometry" />
        </mxCell>
        <mxCell id="RR7a0yrKoINH36ci6veu-70" value="YES" style="text;html=1;align=center;verticalAlign=middle;resizable=0;points=[];autosize=1;strokeColor=none;fillColor=none;" vertex="1" parent="1">
          <mxGeometry x="155" y="210" width="50" height="30" as="geometry" />
        </mxCell>
        <mxCell id="RR7a0yrKoINH36ci6veu-71" value="NO" style="text;html=1;align=center;verticalAlign=middle;resizable=0;points=[];autosize=1;strokeColor=none;fillColor=none;" vertex="1" parent="1">
          <mxGeometry x="425" y="210" width="40" height="30" as="geometry" />
        </mxCell>
      </root>
    </mxGraphModel>
  </diagram>
</mxfile>
